<svg id="itf-14" x="0" y="0" viewBox="0 0 290 142"  preserveAspectRatio="none" xmlns="http://www.w3.org/2000/svg" version="1.1">
    <g transform="translate(10, 10)" style="fill:#000000;">
        <rect x="0" y="0" width="2" height="100"></rect>
        <rect x="4" y="0" width="2" height="100"></rect>
        <rect x="8" y="0" width="6" height="100"></rect>
        <rect x="16" y="0" width="2" height="100"></rect>
        <rect x="24" y="0" width="2" height="100"></rect>
        <rect x="28" y="0" width="2" height="100"></rect>
        <rect x="32" y="0" width="6" height="100"></rect>
        <rect x="44" y="0" width="6" height="100"></rect>
        <rect x="52" y="0" width="6" height="100"></rect>
        <rect x="60" y="0" width="2" height="100"></rect>
        <rect x="68" y="0" width="2" height="100"></rect>
        <rect x="72" y="0" width="2" height="100"></rect>
        <rect x="80" y="0" width="6" height="100"></rect>
        <rect x="88" y="0" width="2" height="100"></rect>
        <rect x="96" y="0" width="6" height="100"></rect>
        <rect x="108" y="0" width="2" height="100"></rect>
        <rect x="112" y="0" width="2" height="100"></rect>
        <rect x="116" y="0" width="2" height="100"></rect>
        <rect x="124" y="0" width="2" height="100"></rect>
        <rect x="128" y="0" width="2" height="100"></rect>
        <rect x="132" y="0" width="6" height="100"></rect>
        <rect x="144" y="0" width="6" height="100"></rect>
        <rect x="152" y="0" width="2" height="100"></rect>
        <rect x="156" y="0" width="6" height="100"></rect>
        <rect x="164" y="0" width="2" height="100"></rect>
        <rect x="172" y="0" width="6" height="100"></rect>
        <rect x="184" y="0" width="2" height="100"></rect>
        <rect x="188" y="0" width="6" height="100"></rect>
        <rect x="196" y="0" width="2" height="100"></rect>
        <rect x="204" y="0" width="2" height="100"></rect>
        <rect x="208" y="0" width="2" height="100"></rect>
        <rect x="212" y="0" width="6" height="100"></rect>
        <rect x="224" y="0" width="6" height="100"></rect>
        <rect x="236" y="0" width="6" height="100"></rect>
        <rect x="244" y="0" width="2" height="100"></rect>
        <rect x="248" y="0" width="2" height="100"></rect>
        <rect x="252" y="0" width="2" height="100"></rect>
        <rect x="260" y="0" width="6" height="100"></rect>
        <rect x="268" y="0" width="2" height="100"></rect>
        <text style="font: 20px monospace" text-anchor="middle" x="135" y="122">12345678901231</text>
    </g>
</svg>